<?xml version="1.0" encoding="UTF-8"?><svg id="Calque_1" xmlns="http://www.w3.org/2000/svg" viewBox="0 0 151.15 99.21"><path d="m4.71,56.44v-21.31h9c.92,0,1.77.2,2.54.59.77.39,1.44.9,2,1.53.56.63.99,1.35,1.31,2.15.31.8.47,1.61.47,2.43s-.11,1.53-.34,2.24c-.23.71-.55,1.35-.96,1.92-.41.57-.91,1.05-1.49,1.44-.58.39-1.23.66-1.95.8l5.22,8.22h-2.37l-5.01-7.86h-6.3v7.86h-2.1Zm2.1-9.72h6.96c.62,0,1.19-.14,1.7-.4.51-.27.95-.64,1.31-1.1.36-.46.64-.98.84-1.56.2-.58.3-1.19.3-1.83s-.11-1.26-.34-1.85c-.23-.59-.54-1.11-.93-1.55-.39-.44-.85-.79-1.38-1.05-.53-.26-1.09-.39-1.67-.39h-6.78v9.72Z" fill="#2e3244" stroke-width="0"/><path d="m30.19,56.74c-1.14,0-2.19-.22-3.14-.65-.95-.43-1.78-1.02-2.48-1.77-.7-.75-1.25-1.62-1.64-2.6-.39-.98-.59-2.03-.59-3.15s.2-2.14.59-3.11c.39-.97.93-1.82,1.62-2.55s1.52-1.31,2.48-1.74,2-.65,3.12-.65,2.19.22,3.14.65,1.77,1.02,2.45,1.76c.68.74,1.21,1.59,1.59,2.55.38.96.57,1.98.57,3.06v.48c0,.16-.01.27-.03.33h-13.38c.06.84.25,1.62.59,2.33.33.71.75,1.33,1.27,1.85.52.52,1.11.93,1.79,1.22.67.29,1.39.43,2.15.43.5,0,1-.07,1.5-.21.5-.14.96-.33,1.38-.57.42-.24.8-.53,1.14-.89.34-.35.6-.74.78-1.15l1.77.48c-.24.58-.58,1.1-1.02,1.58-.44.47-.95.88-1.53,1.23-.58.35-1.22.62-1.92.81-.7.19-1.43.28-2.19.28Zm5.76-8.94c-.06-.84-.25-1.61-.58-2.3-.33-.69-.75-1.29-1.26-1.79-.51-.5-1.1-.89-1.77-1.17-.67-.28-1.39-.42-2.15-.42s-1.48.14-2.16.42-1.28.67-1.79,1.17c-.51.5-.92,1.1-1.23,1.8-.31.7-.5,1.46-.56,2.28h11.49Z" fill="#2e3244" stroke-width="0"/><path d="m45.31,56.44l-6.36-15.64h2.1l5.37,13.74,5.4-13.74h1.98l-6.36,15.64h-2.13Z" fill="#2e3244" stroke-width="0"/><path d="m56.63,37.53v-3h2.04v3h-2.04Zm0,18.91v-15.64h2.04v15.64h-2.04Z" fill="#2e3244" stroke-width="0"/><path d="m68.36,56.74c-1.22,0-2.41-.2-3.57-.6-1.16-.4-2.16-.98-3-1.74l.93-1.38c.88.72,1.78,1.26,2.69,1.62.91.36,1.89.54,2.93.54,1.26,0,2.27-.25,3.02-.76s1.13-1.24,1.13-2.18c0-.44-.1-.8-.3-1.09-.2-.29-.5-.55-.89-.77-.39-.22-.88-.41-1.47-.59-.59-.17-1.28-.34-2.06-.52-.9-.22-1.68-.44-2.34-.66-.66-.22-1.21-.47-1.64-.75-.43-.28-.75-.63-.96-1.04-.21-.41-.31-.93-.31-1.55,0-.78.15-1.47.47-2.07.31-.6.73-1.1,1.26-1.49.53-.39,1.15-.69,1.86-.89.71-.2,1.47-.3,2.27-.3,1.2,0,2.29.19,3.27.59.98.39,1.77.91,2.37,1.55l-.99,1.2c-.58-.6-1.29-1.05-2.12-1.35-.83-.3-1.7-.45-2.6-.45-.54,0-1.04.06-1.5.17-.46.11-.87.28-1.22.52-.35.24-.63.55-.83.92-.2.37-.3.81-.3,1.31,0,.42.07.76.21,1.02.14.26.37.49.69.67.32.19.72.36,1.22.51.49.15,1.09.31,1.79.47,1,.24,1.88.48,2.64.72.76.24,1.4.52,1.91.84s.9.71,1.16,1.17c.26.46.39,1.02.39,1.68,0,1.44-.55,2.58-1.65,3.42-1.1.84-2.58,1.26-4.44,1.26Z" fill="#2e3244" stroke-width="0"/><path d="m77.78,37.53v-3h2.04v3h-2.04Zm0,18.91v-15.64h2.04v15.64h-2.04Z" fill="#2e3244" stroke-width="0"/><path d="m90.99,56.74c-1.14,0-2.18-.22-3.12-.65-.94-.43-1.76-1.01-2.45-1.76-.69-.74-1.23-1.6-1.61-2.58-.38-.98-.57-2.01-.57-3.09s.2-2.14.59-3.12c.39-.98.93-1.84,1.62-2.58s1.51-1.33,2.45-1.77c.94-.44,1.97-.66,3.09-.66s2.16.22,3.11.66c.95.44,1.77,1.03,2.46,1.77s1.23,1.6,1.62,2.58c.39.98.59,2.02.59,3.12s-.19,2.11-.57,3.09c-.38.98-.92,1.84-1.61,2.58-.69.74-1.51,1.33-2.46,1.76s-2,.65-3.14.65Zm-5.67-8.04c0,.88.15,1.7.45,2.45.3.75.71,1.41,1.22,1.98.51.57,1.11,1.02,1.8,1.33.69.32,1.43.48,2.21.48s1.52-.17,2.21-.5c.69-.33,1.3-.78,1.82-1.35.52-.57.93-1.24,1.23-2,.3-.76.45-1.58.45-2.46s-.15-1.68-.45-2.45c-.3-.77-.71-1.44-1.23-2.01-.52-.57-1.13-1.02-1.82-1.35s-1.43-.5-2.21-.5-1.51.17-2.19.5-1.28.79-1.8,1.37-.93,1.26-1.23,2.03c-.3.77-.45,1.6-.45,2.48Z" fill="#2e3244" stroke-width="0"/><path d="m115.33,56.44h-2.04v-8.73c0-1.86-.28-3.21-.83-4.05-.55-.84-1.4-1.26-2.54-1.26-.6,0-1.2.11-1.8.33-.6.22-1.16.53-1.67.93-.51.4-.97.88-1.37,1.43-.4.55-.69,1.15-.87,1.79v9.57h-2.04v-15.64h1.86v3.54c.64-1.14,1.56-2.06,2.75-2.76,1.19-.7,2.49-1.05,3.89-1.05.86,0,1.59.16,2.19.48.6.32,1.08.77,1.44,1.35s.62,1.29.78,2.13c.16.84.24,1.77.24,2.79v9.15Z" fill="#2e3244" stroke-width="0"/><rect x="52.46" y="62.13" width="10.32" height="33.32" fill="#2e3244" stroke-width="0"/><rect x="52.46" y="3.76" width="10.32" height="25.51" fill="#2e3244" stroke-width="0"/><polygon points="136 44.39 120.73 44.39 120.73 54.83 136 54.83 136 95.45 146.44 95.45 146.44 3.76 136 3.76 136 44.39" fill="#2e3244" stroke-width="0"/></svg>