<?xml version="1.0" encoding="UTF-8"?><svg id="Calque_1" xmlns="http://www.w3.org/2000/svg" viewBox="0 0 269.29 99.21"><path d="m5.69,46.1v-15.48h6.54c.67,0,1.28.14,1.84.43.56.28,1.04.65,1.45,1.11.41.46.72.98.95,1.56.23.58.34,1.17.34,1.77s-.08,1.11-.25,1.62c-.17.52-.4.98-.7,1.4-.3.41-.66.76-1.08,1.05-.42.28-.89.48-1.42.58l3.79,5.97h-1.72l-3.64-5.71h-4.58v5.71h-1.53Zm1.53-7.06h5.06c.45,0,.86-.1,1.23-.29.37-.2.69-.46.95-.8.26-.33.46-.71.61-1.13.15-.42.22-.86.22-1.33s-.08-.91-.25-1.34c-.17-.43-.39-.8-.68-1.12-.28-.32-.62-.57-1-.76-.39-.19-.79-.28-1.21-.28h-4.93v7.06Z" fill="#EFF3F5" stroke-width="0"/><path d="m24.2,46.32c-.83,0-1.59-.16-2.28-.47-.69-.31-1.29-.74-1.8-1.29-.51-.54-.9-1.17-1.19-1.89-.28-.71-.43-1.48-.43-2.29s.14-1.55.43-2.26c.28-.7.68-1.32,1.18-1.85s1.1-.95,1.8-1.26,1.45-.47,2.27-.47,1.59.16,2.28.47,1.28.74,1.78,1.28c.49.54.88,1.16,1.16,1.85.28.7.41,1.44.41,2.22v.35c0,.12,0,.2-.02.24h-9.72c.04.61.19,1.17.43,1.69.24.52.55.96.93,1.34.38.38.81.67,1.3.88.49.21,1.01.32,1.56.32.36,0,.73-.05,1.09-.15.36-.1.7-.24,1-.41.31-.17.58-.39.83-.64.25-.25.44-.53.57-.84l1.29.35c-.17.42-.42.8-.74,1.14-.32.34-.69.64-1.11.89-.42.25-.89.45-1.4.59-.51.14-1.04.21-1.59.21Zm4.19-6.5c-.04-.61-.19-1.17-.42-1.67-.24-.5-.55-.93-.92-1.3-.37-.36-.8-.65-1.29-.85-.49-.2-1.01-.31-1.56-.31s-1.08.1-1.57.31-.93.49-1.3.85c-.37.36-.67.8-.89,1.31-.23.51-.36,1.06-.4,1.66h8.35Z" fill="#EFF3F5" stroke-width="0"/><path d="m35.19,46.1l-4.62-11.36h1.53l3.9,9.99,3.92-9.99h1.44l-4.62,11.36h-1.55Z" fill="#EFF3F5" stroke-width="0"/><path d="m43.41,32.36v-2.18h1.48v2.18h-1.48Zm0,13.74v-11.36h1.48v11.36h-1.48Z" fill="#EFF3F5" stroke-width="0"/><path d="m51.94,46.32c-.89,0-1.75-.15-2.59-.44-.84-.29-1.57-.71-2.18-1.26l.68-1c.64.52,1.29.92,1.95,1.18.66.26,1.37.39,2.13.39.92,0,1.65-.18,2.19-.56s.82-.9.82-1.58c0-.32-.07-.58-.22-.8-.15-.21-.36-.4-.64-.56-.28-.16-.64-.3-1.07-.43-.43-.12-.93-.25-1.49-.38-.65-.16-1.22-.32-1.7-.48-.48-.16-.88-.34-1.19-.55-.31-.2-.54-.45-.7-.75-.15-.3-.23-.67-.23-1.12,0-.57.11-1.07.34-1.5.23-.44.53-.8.92-1.08.39-.28.84-.5,1.35-.64.52-.15,1.06-.22,1.65-.22.87,0,1.66.14,2.38.43.71.28,1.29.66,1.72,1.12l-.72.87c-.42-.44-.93-.76-1.54-.98-.6-.22-1.23-.33-1.89-.33-.39,0-.76.04-1.09.12-.33.08-.63.21-.88.38-.25.17-.45.4-.6.67-.15.27-.22.59-.22.95,0,.31.05.55.15.74.1.19.27.35.5.49.23.14.53.26.88.37.36.11.79.22,1.3.34.73.17,1.37.35,1.92.52.55.17,1.01.38,1.38.61s.65.52.84.85c.19.33.28.74.28,1.22,0,1.05-.4,1.87-1.2,2.49-.8.61-1.88.92-3.23.92Z" fill="#EFF3F5" stroke-width="0"/><path d="m58.78,32.36v-2.18h1.48v2.18h-1.48Zm0,13.74v-11.36h1.48v11.36h-1.48Z" fill="#EFF3F5" stroke-width="0"/><path d="m68.38,46.32c-.83,0-1.58-.16-2.27-.47-.68-.31-1.28-.74-1.78-1.28-.5-.54-.89-1.16-1.17-1.88-.28-.71-.41-1.46-.41-2.25s.14-1.56.43-2.27c.28-.71.68-1.34,1.18-1.88s1.09-.97,1.78-1.29c.68-.32,1.43-.48,2.25-.48s1.57.16,2.26.48c.69.32,1.29.75,1.79,1.29s.89,1.16,1.18,1.88c.28.71.43,1.47.43,2.27s-.14,1.53-.41,2.25c-.28.71-.67,1.34-1.17,1.88-.5.54-1.1.96-1.79,1.28s-1.45.47-2.28.47Zm-4.12-5.84c0,.64.11,1.23.33,1.78.22.54.51,1.02.88,1.44s.81.74,1.31.97c.5.23,1.04.35,1.6.35s1.1-.12,1.6-.36c.5-.24.94-.57,1.32-.98.38-.42.68-.9.89-1.45.22-.55.33-1.15.33-1.79s-.11-1.22-.33-1.78c-.22-.56-.52-1.05-.89-1.46-.38-.41-.82-.74-1.32-.98s-1.04-.36-1.6-.36-1.1.12-1.59.36-.93.57-1.31.99-.68.91-.89,1.47c-.22.56-.33,1.16-.33,1.8Z" fill="#EFF3F5" stroke-width="0"/><path d="m86.06,46.1h-1.48v-6.34c0-1.35-.2-2.33-.6-2.94-.4-.61-1.01-.92-1.84-.92-.44,0-.87.08-1.31.24-.44.16-.84.39-1.21.68-.37.29-.7.64-.99,1.04-.29.4-.5.83-.63,1.3v6.96h-1.48v-11.36h1.35v2.57c.47-.83,1.13-1.5,2-2.01s1.81-.76,2.82-.76c.62,0,1.16.12,1.59.35.44.23.79.56,1.05.98s.45.94.57,1.55c.12.61.17,1.29.17,2.03v6.65Z" fill="#EFF3F5" stroke-width="0"/><path d="m161.94,20.78h-32.2c-6.2,0-11.19,5-11.19,11.19v31.27c0,6.2,5,11.19,11.19,11.19h43.48v-7.59h-43.48c-1.94,0-3.61-1.67-3.61-3.61v-11.84h47.09v-19.43c0-6.2-5-11.19-11.29-11.19Zm3.61,23.04h-39.41v-11.84c0-1.94,1.67-3.61,3.61-3.61h32.2c2.04,0,3.61,1.66,3.61,3.61v11.84Z" fill="#EFF3F5" stroke-width="0"/><path d="m188.39,63.25V3.21h-7.59v60.04c0,6.2,5,11.19,11.19,11.19h9.07v-7.59h-9.07c-1.94,0-3.61-1.67-3.61-3.61Z" fill="#EFF3F5" stroke-width="0"/><path d="m252.41,20.78h-43.48v74.94h7.59v-21.28h35.9c6.2,0,11.19-5,11.19-11.19v-31.27c0-6.2-5-11.19-11.19-11.19Zm3.61,42.46c0,1.94-1.67,3.61-3.61,3.61h-32.2c-2.03,0-3.7-1.67-3.7-3.61v-31.27c0-1.94,1.67-3.61,3.7-3.61h32.2c1.94,0,3.61,1.66,3.61,3.61v31.27Z" fill="#EFF3F5" stroke-width="0"/><rect x="40.39" y="50.24" width="7.49" height="24.2" fill="#EFF3F5" stroke-width="0"/><rect x="40.39" y="7.83" width="7.49" height="18.53" fill="#EFF3F5" stroke-width="0"/><polygon points="101.07 37.34 89.98 37.34 89.98 44.93 101.07 44.93 101.07 74.44 108.66 74.44 108.66 7.83 101.07 7.83 101.07 37.34" fill="#EFF3F5" stroke-width="0"/><path d="m232.11,96.01v-1.27h.77v1.27h-.77Z" fill="#EFF3F5" stroke-width="0"/><path d="m235.02,96.01v-6.07h-.94v-.7h.94v-.18c0-.83.18-1.48.53-1.96s.84-.71,1.46-.71c.27,0,.53.04.78.12.25.08.47.18.65.31l-.27.64c-.12-.1-.27-.17-.45-.22-.18-.05-.36-.08-.54-.08-.42,0-.73.16-.95.48-.22.32-.33.79-.33,1.39v.21h1.87v.7h-1.87v6.07h-.88Z" fill="#EFF3F5" stroke-width="0"/><path d="m242.36,90.01c-.6.02-1.12.18-1.56.49-.44.31-.75.74-.94,1.29v4.21h-.88v-6.77h.83v1.62c.25-.52.59-.93,1.01-1.22.42-.29.88-.44,1.36-.44.07,0,.13,0,.17.01v.81Z" fill="#EFF3F5" stroke-width="0"/></svg>